<svg width="1200" height="430" viewBox="0 0 1200 430" fill="none" xmlns="http://www.w3.org/2000/svg">
  <defs>
    <radialGradient id="g1" cx="0" cy="0" r="1" gradientUnits="userSpaceOnUse" gradientTransform="translate(210 82) rotate(34) scale(520 310)">
      <stop stop-color="#00E5FF" stop-opacity=".95"/>
      <stop offset=".45" stop-color="#7C3AED" stop-opacity=".32"/>
      <stop offset="1" stop-color="#050505" stop-opacity="0"/>
    </radialGradient>
    <radialGradient id="g2" cx="0" cy="0" r="1" gradientUnits="userSpaceOnUse" gradientTransform="translate(982 145) rotate(139) scale(510 300)">
      <stop stop-color="#FF2ED1" stop-opacity=".78"/>
      <stop offset=".45" stop-color="#F97316" stop-opacity=".24"/>
      <stop offset="1" stop-color="#050505" stop-opacity="0"/>
    </radialGradient>
    <linearGradient id="stroke" x1="70" y1="37" x2="1130" y2="393" gradientUnits="userSpaceOnUse">
      <stop stop-color="#22D3EE"/>
      <stop offset=".5" stop-color="#A855F7"/>
      <stop offset="1" stop-color="#FB7185"/>
    </linearGradient>
    <linearGradient id="text" x1="240" y1="134" x2="966" y2="134" gradientUnits="userSpaceOnUse">
      <stop stop-color="#E0F2FE"/>
      <stop offset=".42" stop-color="#67E8F9"/>
      <stop offset=".72" stop-color="#D8B4FE"/>
      <stop offset="1" stop-color="#FDA4AF"/>
    </linearGradient>
    <filter id="glow" x="-30%" y="-30%" width="160%" height="160%" color-interpolation-filters="sRGB">
      <feGaussianBlur stdDeviation="8" result="blur"/>
      <feColorMatrix in="blur" type="matrix" values="0 0 0 0 0.08 0 0 0 0 0.83 0 0 0 0 1 0 0 0 .65 0"/>
      <feBlend in2="SourceGraphic" mode="screen"/>
    </filter>
    <pattern id="grid" width="42" height="42" patternUnits="userSpaceOnUse">
      <path d="M42 0H0V42" stroke="#67E8F9" stroke-opacity=".09"/>
    </pattern>
  </defs>
  <rect width="1200" height="430" rx="34" fill="#050505"/>
  <rect width="1200" height="430" rx="34" fill="url(#grid)"/>
  <rect width="1200" height="430" rx="34" fill="url(#g1)">
    <animate attributeName="opacity" values=".78;.35;.78" dur="7s" repeatCount="indefinite"/>
  </rect>
  <rect width="1200" height="430" rx="34" fill="url(#g2)">
    <animate attributeName="opacity" values=".36;.82;.36" dur="8s" repeatCount="indefinite"/>
  </rect>
  <path d="M95 331C213 246 285 365 402 281C538 184 627 320 755 216C877 117 969 160 1105 90" stroke="#22D3EE" stroke-opacity=".28" stroke-width="2"/>
  <path d="M84 344C218 254 300 388 426 291C559 190 642 327 776 226C892 138 980 180 1110 114" stroke="#F0ABFC" stroke-opacity=".2" stroke-width="2"/>
  <rect x="44" y="34" width="1112" height="362" rx="28" fill="#0B0F19" fill-opacity=".58" stroke="url(#stroke)" stroke-width="2" filter="url(#glow)"/>
  <circle cx="105" cy="91" r="6" fill="#22D3EE"/>
  <circle cx="128" cy="91" r="6" fill="#A855F7"/>
  <circle cx="151" cy="91" r="6" fill="#FB7185"/>
  <text x="600" y="164" text-anchor="middle" fill="url(#text)" font-family="Inter,Segoe UI,Arial,sans-serif" font-size="56" font-weight="800" letter-spacing=".4">Muhammad Aswab Khalil</text>
  <text x="600" y="214" text-anchor="middle" fill="#D1D5DB" font-family="Inter,Segoe UI,Arial,sans-serif" font-size="22" font-weight="600">Software Engineer | Flutter | MERN | Computer Vision + AI</text>
  <text x="600" y="268" text-anchor="middle" fill="#67E8F9" font-family="JetBrains Mono,Consolas,monospace" font-size="18" font-weight="700">building production-ready mobile, web, and intelligent systems</text>
  <rect x="379" y="303" width="442" height="44" rx="22" fill="#050505" fill-opacity=".58" stroke="#22D3EE" stroke-opacity=".42"/>
  <text x="600" y="331" text-anchor="middle" fill="#F9FAFB" font-family="JetBrains Mono,Consolas,monospace" font-size="15">aswab007-ops :: Lahore, Pakistan</text>
</svg>
