<svg width="1200" height="760" viewBox="0 0 1200 760" fill="none" xmlns="http://www.w3.org/2000/svg" role="img" aria-label="Tech stack list cyberpunk console panel">
  <defs>
    <linearGradient id="frame" x1="38" y1="42" x2="1162" y2="718" gradientUnits="userSpaceOnUse">
      <stop stop-color="#00F6FF"/>
      <stop offset=".52" stop-color="#6978FF"/>
      <stop offset="1" stop-color="#FF2ED1"/>
    </linearGradient>
    <linearGradient id="cyanPink" x1="92" y1="108" x2="1108" y2="108" gradientUnits="userSpaceOnUse">
      <stop stop-color="#00F6FF"/>
      <stop offset=".5" stop-color="#00F6FF"/>
      <stop offset=".51" stop-color="#FF2ED1"/>
      <stop offset="1" stop-color="#FF2ED1"/>
    </linearGradient>
    <radialGradient id="mobileGlow" cx="0" cy="0" r="1" gradientUnits="userSpaceOnUse" gradientTransform="translate(247 370) scale(235 235)">
      <stop stop-color="#00F6FF" stop-opacity=".35"/>
      <stop offset="1" stop-color="#00F6FF" stop-opacity="0"/>
    </radialGradient>
    <radialGradient id="webGlow" cx="0" cy="0" r="1" gradientUnits="userSpaceOnUse" gradientTransform="translate(600 370) scale(235 235)">
      <stop stop-color="#6BE7FF" stop-opacity=".28"/>
      <stop offset="1" stop-color="#6BE7FF" stop-opacity="0"/>
    </radialGradient>
    <radialGradient id="visionGlow" cx="0" cy="0" r="1" gradientUnits="userSpaceOnUse" gradientTransform="translate(953 370) scale(235 235)">
      <stop stop-color="#FF2ED1" stop-opacity=".34"/>
      <stop offset="1" stop-color="#FF2ED1" stop-opacity="0"/>
    </radialGradient>
    <filter id="glow" x="-30%" y="-30%" width="160%" height="160%" color-interpolation-filters="sRGB">
      <feGaussianBlur stdDeviation="5" result="b"/>
      <feMerge><feMergeNode in="b"/><feMergeNode in="SourceGraphic"/></feMerge>
    </filter>
    <filter id="soft" x="-30%" y="-30%" width="160%" height="160%">
      <feGaussianBlur stdDeviation="11"/>
    </filter>
    <pattern id="scan" width="8" height="8" patternUnits="userSpaceOnUse">
      <path d="M0 0H8" stroke="#E6EDF3" stroke-opacity=".035"/>
    </pattern>
    <pattern id="hex" width="54" height="48" patternUnits="userSpaceOnUse">
      <path d="M27 2L50 14V38L27 50L4 38V14L27 2Z" stroke="#00F6FF" stroke-opacity=".08"/>
    </pattern>
  </defs>

  <rect width="1200" height="760" fill="#05080D"/>
  <rect width="1200" height="760" fill="url(#scan)"/>
  <rect width="1200" height="760" fill="url(#hex)" opacity=".72"/>
  <rect x="38" y="42" width="1124" height="676" rx="26" fill="#07111A" fill-opacity=".92" stroke="url(#frame)" stroke-width="2.2" filter="url(#glow)"/>
  <rect x="58" y="62" width="1084" height="636" rx="20" fill="#0A0E17" fill-opacity=".7" stroke="#E6EDF3" stroke-opacity=".1"/>

  <g filter="url(#glow)">
    <path d="M82 88H610L596 134H82Z" fill="#07111A" stroke="#00F6FF" stroke-width="3"/>
    <path d="M604 88H1118V134H590Z" fill="#120A17" stroke="#FF2ED1" stroke-width="3"/>
    <text x="102" y="119" fill="#E6EDF3" font-family="Consolas, 'JetBrains Mono', monospace" font-size="24" font-weight="700">&gt; tech_stack --list</text>
  </g>

  <rect x="78" y="164" width="1044" height="470" rx="22" fill="#050B13" fill-opacity=".42" stroke="#00F6FF" stroke-opacity=".1"/>

  <g opacity=".42" stroke-width="2" fill="none">
    <path d="M250 482V560H406V620" stroke="#00F6FF"/>
    <path d="M600 482V620" stroke="#8AB8FF"/>
    <path d="M950 482V560H794V620" stroke="#FF2ED1"/>
    <path d="M372 365H474V412H512" stroke="#00F6FF" stroke-opacity=".62"/>
    <path d="M688 365H790V412H828" stroke="#FF2ED1" stroke-opacity=".62"/>
    <circle cx="250" cy="482" r="8" fill="#00F6FF" stroke="#07111A" stroke-width="3"/>
    <circle cx="600" cy="482" r="8" fill="#8AB8FF" stroke="#07111A" stroke-width="3"/>
    <circle cx="950" cy="482" r="8" fill="#FF2ED1" stroke="#07111A" stroke-width="3"/>
    <circle cx="406" cy="620" r="5" fill="#00F6FF"/>
    <circle cx="600" cy="620" r="5" fill="#8AB8FF"/>
    <circle cx="794" cy="620" r="5" fill="#FF2ED1"/>
  </g>

  <g>
    <rect x="92" y="186" width="306" height="338" rx="44" fill="url(#mobileGlow)"/>
    <path d="M130 187H360Q382 187 382 209V469Q382 494 356 507L282 544Q250 560 218 544L144 507Q116 493 116 469V209Q116 187 140 187Z" fill="#092225" fill-opacity=".76" stroke="#5CFFE9" stroke-width="4" filter="url(#glow)"/>
    <rect x="136" y="204" width="226" height="64" rx="26" fill="#12373A" fill-opacity=".82" stroke="#5CFFE9" stroke-width="4"/>
    <text x="249" y="244" text-anchor="middle" fill="#B9FFF5" font-family="Consolas, 'JetBrains Mono', monospace" font-size="27" font-weight="700">MOBILE</text>
    <text x="249" y="324" text-anchor="middle" fill="#E6EDF3" font-family="Consolas, 'JetBrains Mono', monospace" font-size="21" font-weight="700">FLUTTER | DART</text>
    <text x="249" y="354" text-anchor="middle" fill="#E6EDF3" font-family="Consolas, 'JetBrains Mono', monospace" font-size="21" font-weight="700">PROVIDER | GOROUTER</text>
    <g transform="translate(145 405)">
      <path d="M20 36L62 0H108L46 62H0L20 36Z" fill="#52D9FF"/>
      <path d="M46 62H92L64 92H18L46 62Z" fill="#2BB7E8"/>
      <path d="M138 4L190 34V94L138 124L86 94V34L138 4Z" fill="#2BD5C4"/>
      <path d="M138 4L190 94L138 124L86 34L138 4Z" fill="#1C8DED" opacity=".8"/>
    </g>
  </g>

  <g>
    <rect x="447" y="186" width="306" height="338" rx="44" fill="url(#webGlow)"/>
    <path d="M482 187H718Q742 187 742 211V469Q742 494 716 507L632 548Q600 563 568 548L484 507Q458 494 458 469V211Q458 187 482 187Z" fill="#0B1B2A" fill-opacity=".78" stroke="#8DEBFF" stroke-width="4" filter="url(#glow)"/>
    <rect x="478" y="204" width="244" height="64" rx="26" fill="#173342" fill-opacity=".82" stroke="url(#frame)" stroke-width="4"/>
    <text x="600" y="244" text-anchor="middle" fill="#B9F6FF" font-family="Consolas, 'JetBrains Mono', monospace" font-size="27" font-weight="700">WEB</text>
    <text x="600" y="324" text-anchor="middle" fill="#E6EDF3" font-family="Consolas, 'JetBrains Mono', monospace" font-size="21" font-weight="700">REACT | NODE |</text>
    <text x="600" y="354" text-anchor="middle" fill="#E6EDF3" font-family="Consolas, 'JetBrains Mono', monospace" font-size="21" font-weight="700">EXPRESS | MONGODB</text>
    <g transform="translate(505 403)">
      <circle cx="55" cy="57" r="9" fill="#61DAFB"/>
      <ellipse cx="55" cy="57" rx="56" ry="18" stroke="#61DAFB" stroke-width="5"/>
      <ellipse cx="55" cy="57" rx="56" ry="18" stroke="#61DAFB" stroke-width="5" transform="rotate(60 55 57)"/>
      <ellipse cx="55" cy="57" rx="56" ry="18" stroke="#61DAFB" stroke-width="5" transform="rotate(120 55 57)"/>
      <path d="M157 12L207 40V96L157 124L107 96V40L157 12Z" fill="#8CC84B"/>
      <text x="157" y="78" text-anchor="middle" fill="#11210B" font-family="Arial, sans-serif" font-size="45" font-weight="700">JS</text>
      <text x="26" y="156" fill="#E6EDF3" font-family="Arial, sans-serif" font-size="28">Express</text>
      <path d="M158 139C185 161 180 202 154 218C128 198 130 162 158 139Z" fill="#4DB33D"/>
    </g>
  </g>

  <g>
    <rect x="802" y="186" width="306" height="338" rx="44" fill="url(#visionGlow)"/>
    <path d="M838 187H1074Q1098 187 1098 211V469Q1098 494 1072 507L988 548Q956 563 924 548L840 507Q814 494 814 469V211Q814 187 838 187Z" fill="#2A0B24" fill-opacity=".76" stroke="#FF4FE3" stroke-width="4" filter="url(#glow)"/>
    <rect x="835" y="204" width="244" height="64" rx="26" fill="#3A1233" fill-opacity=".82" stroke="#FF4FE3" stroke-width="4"/>
    <text x="957" y="244" text-anchor="middle" fill="#FFD2F7" font-family="Consolas, 'JetBrains Mono', monospace" font-size="27" font-weight="700">VISION</text>
    <text x="957" y="324" text-anchor="middle" fill="#E6EDF3" font-family="Consolas, 'JetBrains Mono', monospace" font-size="21" font-weight="700">OPENCV | OCR |</text>
    <text x="957" y="354" text-anchor="middle" fill="#E6EDF3" font-family="Consolas, 'JetBrains Mono', monospace" font-size="21" font-weight="700">RESNET | 3D GEOMETRY</text>
    <g transform="translate(866 403)">
      <path d="M50 8C22 8 24 30 24 30V54H80C99 54 99 26 80 26H66V8H50Z" fill="#3776AB"/>
      <path d="M78 118C106 118 104 96 104 96V72H48C29 72 29 100 48 100H62V118H78Z" fill="#FFD43B"/>
      <path d="M173 4L224 34L173 64V4Z" fill="#FF8C00"/>
      <path d="M173 64L224 34V94L173 124V64Z" fill="#FF6F00"/>
      <path d="M173 64L122 34V94L173 124V64Z" fill="#FFA000"/>
      <path d="M47 178C23 164 28 132 58 124" stroke="#EE4C2C" stroke-width="8" stroke-linecap="round"/>
      <path d="M95 178C120 164 116 132 86 124" stroke="#EE4C2C" stroke-width="8" stroke-linecap="round"/>
      <path d="M178 126C202 126 218 140 222 158C210 151 197 151 184 160C172 168 161 167 148 160C151 140 160 126 178 126Z" fill="#4285F4"/>
      <path d="M184 160C197 151 210 151 222 158C223 177 209 194 188 198C177 187 169 175 184 160Z" fill="#34A853"/>
      <path d="M148 160C161 167 172 168 184 160C169 175 177 187 188 198C164 200 145 185 142 164C143 162 145 161 148 160Z" fill="#FBBC05"/>
      <path d="M142 164C145 185 164 200 188 198C168 211 137 199 132 173C134 168 137 165 142 164Z" fill="#EA4335"/>
    </g>
  </g>

  <g filter="url(#glow)">
    <rect x="110" y="606" width="980" height="108" rx="22" fill="#2B3038" fill-opacity=".9" stroke="#AAB2BD" stroke-width="3"/>
    <g transform="translate(136 630)">
      <rect x="0" y="0" width="45" height="50" rx="10" fill="#202631"/><text x="22.5" y="32" text-anchor="middle" fill="#52D9FF" font-family="Arial" font-size="19" font-weight="700">Fl</text>
      <rect x="52" y="0" width="45" height="50" rx="10" fill="#202631"/><text x="74.5" y="32" text-anchor="middle" fill="#B85CFF" font-family="Arial" font-size="19" font-weight="700">Kt</text>
      <rect x="104" y="0" width="45" height="50" rx="10" fill="#202631"/><text x="126.5" y="32" text-anchor="middle" fill="#61DAFB" font-family="Arial" font-size="19" font-weight="700">Re</text>
      <rect x="156" y="0" width="45" height="50" rx="10" fill="#202631"/><text x="178.5" y="32" text-anchor="middle" fill="#8CC84B" font-family="Arial" font-size="19" font-weight="700">Nd</text>
      <rect x="208" y="0" width="45" height="50" rx="10" fill="#202631"/><text x="230.5" y="32" text-anchor="middle" fill="#E6EDF3" font-family="Arial" font-size="18" font-weight="700">Ex</text>
      <rect x="260" y="0" width="45" height="50" rx="10" fill="#202631"/><text x="282.5" y="32" text-anchor="middle" fill="#4DB33D" font-family="Arial" font-size="18" font-weight="700">Mg</text>
      <rect x="312" y="0" width="45" height="50" rx="10" fill="#202631"/><text x="334.5" y="32" text-anchor="middle" fill="#FFD43B" font-family="Arial" font-size="18" font-weight="700">Py</text>
      <rect x="364" y="0" width="45" height="50" rx="10" fill="#202631"/><text x="386.5" y="32" text-anchor="middle" fill="#2496ED" font-family="Arial" font-size="18" font-weight="700">Dk</text>
      <rect x="416" y="0" width="45" height="50" rx="10" fill="#202631"/><text x="438.5" y="32" text-anchor="middle" fill="#A4C639" font-family="Arial" font-size="18" font-weight="700">An</text>
      <rect x="468" y="0" width="45" height="50" rx="10" fill="#202631"/><text x="490.5" y="32" text-anchor="middle" fill="#FF8C00" font-family="Arial" font-size="18" font-weight="700">Tf</text>
      <rect x="520" y="0" width="45" height="50" rx="10" fill="#202631"/><text x="542.5" y="32" text-anchor="middle" fill="#FFCA28" font-family="Arial" font-size="18" font-weight="700">Fb</text>
      <rect x="572" y="0" width="45" height="50" rx="10" fill="#202631"/><text x="594.5" y="32" text-anchor="middle" fill="#FF6B35" font-family="Arial" font-size="17" font-weight="700">Git</text>
      <rect x="624" y="0" width="45" height="50" rx="10" fill="#202631"/><text x="646.5" y="32" text-anchor="middle" fill="#F8FAFC" font-family="Arial" font-size="18" font-weight="700">Gh</text>
      <rect x="676" y="0" width="45" height="50" rx="10" fill="#202631"/><text x="698.5" y="32" text-anchor="middle" fill="#2496ED" font-family="Arial" font-size="18" font-weight="700">Dc</text>
      <rect x="728" y="0" width="45" height="50" rx="10" fill="#202631"/><text x="750.5" y="32" text-anchor="middle" fill="#F8FAFC" font-family="Arial" font-size="18" font-weight="700">Ln</text>
      <rect x="780" y="0" width="45" height="50" rx="10" fill="#202631"/><text x="802.5" y="32" text-anchor="middle" fill="#FF61F6" font-family="Arial" font-size="18" font-weight="700">Fg</text>
      <rect x="832" y="0" width="45" height="50" rx="10" fill="#202631"/><text x="854.5" y="32" text-anchor="middle" fill="#F8FAFC" font-family="Arial" font-size="18" font-weight="700">Ve</text>
      <rect x="884" y="0" width="45" height="50" rx="10" fill="#202631"/><text x="906.5" y="32" text-anchor="middle" fill="#3AA7FF" font-family="Arial" font-size="18" font-weight="700">VS</text>
    </g>
    <text x="600" y="700" text-anchor="middle" fill="#E6EDF3" font-family="Consolas, 'JetBrains Mono', monospace" font-size="16">DEVELOPMENT TOOLS &amp; WORKFLOW</text>
  </g>

  <g opacity=".9">
    <rect x="1080" y="638" width="42" height="42" rx="7" stroke="#E6EDF3" stroke-opacity=".55" stroke-width="2"/>
    <rect x="1068" y="650" width="42" height="42" rx="7" stroke="#E6EDF3" stroke-opacity=".35" stroke-width="2"/>
  </g>
  <path d="M1076 574L1091 607L1125 622L1091 637L1076 670L1061 637L1027 622L1061 607L1076 574Z" fill="#E6EDF3" fill-opacity=".35"/>
</svg>
